<svg width="70" height="97" viewBox="0 0 70 97" fill="none" xmlns="http://www.w3.org/2000/svg">
<path fill-rule="evenodd" clip-rule="evenodd" d="M34.9837 0C15.6627 0 0 15.6627 0 34.9837C0 48.1715 16.2985 75.9533 26.6461 92.2626C30.5791 98.4616 39.3883 98.4616 43.3213 92.2626C53.6689 75.9534 69.9674 48.1715 69.9674 34.9837C69.9674 15.6627 54.3047 0 34.9837 0Z" fill="url(#paint0_linear_2535_686)"/>
<path fill-rule="evenodd" clip-rule="evenodd" d="M37.4306 15.2086C37.1753 14.8667 36.7918 14.643 36.3681 14.5889C35.9444 14.5348 35.5168 14.6549 35.1836 14.9216C32.839 16.7982 30.9383 19.1682 29.6171 21.8625C28.6872 23.7587 28.0606 25.7826 27.7547 27.8608C26.3809 26.8657 25.1718 25.6537 24.1775 24.2676C23.9048 23.8874 23.4765 23.6482 23.0092 23.6151C22.5419 23.5819 22.0841 23.7583 21.7602 24.0962C19.2022 26.765 17.486 30.125 16.8245 33.7589C16.163 37.3928 16.5855 41.1406 18.0395 44.5369C19.4935 47.9333 21.9149 50.8285 25.0032 52.8633C28.0914 54.898 31.7104 55.9826 35.4108 55.9823H35.4116C39.7371 55.9799 43.9308 54.4961 47.2921 51.7789C50.6534 49.0616 52.9788 45.2754 53.8798 41.0528C54.7808 36.8302 54.2029 32.4269 52.2426 28.5784C50.2822 24.73 47.0557 21.6683 43.1066 19.9069C40.8666 18.815 38.9204 17.2041 37.4306 15.2086Z" fill="white"/>
<defs>
<linearGradient id="paint0_linear_2535_686" x1="0" y1="0" x2="78.3646" y2="7.34705" gradientUnits="userSpaceOnUse">
<stop stop-color="#F8B54F"/>
<stop offset="0.346154" stop-color="#ED4B4B"/>
<stop offset="1" stop-color="#ED4BB2"/>
</linearGradient>
</defs>
</svg>
