<svg width="49" height="52" viewBox="0 0 49 52" fill="none" xmlns="http://www.w3.org/2000/svg">
<path fill-rule="evenodd" clip-rule="evenodd" d="M30.6492 6.78913C31.2587 7.60853 32.0513 8.27467 32.9641 8.73412C37.1984 10.6592 40.6598 13.9722 42.7713 18.1323C44.9006 22.3274 45.5286 27.1283 44.5497 31.7325C43.5708 36.3366 41.0449 40.4626 37.3964 43.4226C33.7482 46.3823 29.1982 47.9974 24.5066 48H24.5031C20.4894 48.0002 16.5627 46.8196 13.2112 44.6035C9.85953 42.3873 7.22992 39.2326 5.65048 35.53C4.071 31.8273 3.61185 27.7408 4.33055 23.7783C5.04924 19.8158 6.91378 16.1535 9.69103 13.2455C11.1175 11.7519 13.1312 10.9748 15.184 11.1209C15.5554 11.1473 15.9205 10.9826 16.1226 10.6699C17.3826 8.71973 18.9493 6.98002 20.7663 5.52048C22.0947 4.45344 24.0671 3.80714 25.9745 4.0516C27.8362 4.29019 29.5241 5.27677 30.6492 6.78913Z" fill="url(#paint0_linear_2466_881)" fill-opacity="0.4"/>
<g filter="url(#filter0_d_2466_881)">
<path fill-rule="evenodd" clip-rule="evenodd" d="M17.1305 14.7706C17.2185 14.5739 17.3098 14.3785 17.4046 14.1845C18.625 11.6868 20.3805 9.49028 22.5454 7.75126C23.3081 7.13866 24.517 6.74537 25.6138 6.88595C26.7107 7.02653 27.705 7.60782 28.3675 8.49846C29.255 9.69152 30.4122 10.6573 31.7443 11.3166C35.4118 12.9716 38.4092 15.8335 40.2342 19.4291C42.0672 23.0405 42.6077 27.1731 41.7651 31.1362C40.9225 35.0992 38.7481 38.6515 35.6064 41.2003C32.4648 43.7491 28.5461 45.1402 24.5049 45.1425H24.5029C21.0456 45.1427 17.6638 44.1258 14.7776 42.2174C11.8914 40.3089 9.62749 37.5927 8.26788 34.4054C6.90825 31.2181 6.51308 27.7006 7.13169 24.2899C7.7503 20.8793 9.35526 17.7264 11.7465 15.2226C12.5867 14.3429 13.7729 13.885 14.9825 13.9711C15.7681 14.027 16.5117 14.3087 17.1305 14.7706Z" fill="url(#paint1_linear_2466_881)" fill-opacity="0.6" shape-rendering="crispEdges"/>
</g>
<g filter="url(#filter1_d_2466_881)">
<path fill-rule="evenodd" clip-rule="evenodd" d="M26.0859 10.2084C25.8859 9.93947 25.5852 9.76351 25.2531 9.72094C24.9209 9.67837 24.5858 9.77285 24.3245 9.98269C22.4866 11.459 20.9966 13.3235 19.9609 15.4431C19.232 16.9349 18.7408 18.5272 18.5011 20.1621C17.4241 19.3793 16.4763 18.4257 15.6969 17.3353C15.4831 17.0362 15.1474 16.848 14.781 16.8219C14.4147 16.7959 14.0558 16.9346 13.802 17.2004C11.7967 19.3 10.4514 21.9434 9.93283 24.8022C9.41431 27.661 9.7455 30.6095 10.8853 33.2814C12.0251 35.9534 13.9232 38.2311 16.3441 39.8319C18.765 41.4326 21.6019 42.2859 24.5026 42.2856H24.5033C27.894 42.2837 31.1815 41.1164 33.8164 38.9787C36.4514 36.8411 38.2742 33.8624 38.9805 30.5405C39.6868 27.2185 39.2338 23.7543 37.6971 20.7267C36.1604 17.699 33.6311 15.2904 30.5354 13.9047C28.7794 13.0457 27.2538 11.7784 26.0859 10.2084Z" fill="url(#paint2_linear_2466_881)"/>
</g>
<g filter="url(#filter2_d_2466_881)">
<path fill-rule="evenodd" clip-rule="evenodd" d="M25.857 22.2596C25.7489 22.1193 25.5865 22.0274 25.407 22.0052C25.2275 21.983 25.0464 22.0323 24.9052 22.1418C23.9121 22.9123 23.1071 23.8853 22.5474 24.9915C22.1536 25.77 21.8881 26.601 21.7586 27.4542C21.1767 27.0457 20.6646 26.5481 20.2434 25.979C20.1279 25.8229 19.9465 25.7247 19.7485 25.7111C19.5506 25.6975 19.3567 25.7699 19.2195 25.9086C18.136 27.0043 17.409 28.3838 17.1289 29.8758C16.8487 31.3677 17.0276 32.9065 17.6435 34.3009C18.2594 35.6953 19.285 36.884 20.5931 37.7194C21.9012 38.5548 23.4341 39.0001 25.0015 39H25.0018C26.834 38.999 28.6103 38.3898 30.0341 37.2742C31.4578 36.1586 32.4428 34.6041 32.8244 32.8705C33.2061 31.1368 32.9613 29.3289 32.1309 27.7489C31.3006 26.1688 29.934 24.9118 28.2612 24.1886C27.3124 23.7403 26.488 23.079 25.857 22.2596Z" fill="white"/>
</g>
<defs>
<filter id="filter0_d_2466_881" x="0.0750446" y="0.0852985" width="48.8499" height="51.8294" filterUnits="userSpaceOnUse" color-interpolation-filters="sRGB">
<feFlood flood-opacity="0" result="BackgroundImageFix"/>
<feColorMatrix in="SourceAlpha" type="matrix" values="0 0 0 0 0 0 0 0 0 0 0 0 0 0 0 0 0 0 127 0" result="hardAlpha"/>
<feOffset/>
<feGaussianBlur stdDeviation="3.38606"/>
<feComposite in2="hardAlpha" operator="out"/>
<feColorMatrix type="matrix" values="0 0 0 0 1 0 0 0 0 1 0 0 0 0 1 0 0 0 0.7 0"/>
<feBlend mode="normal" in2="BackgroundImageFix" result="effect1_dropShadow_2466_881"/>
<feBlend mode="normal" in="SourceGraphic" in2="effect1_dropShadow_2466_881" result="shape"/>
</filter>
<filter id="filter1_d_2466_881" x="5.46176" y="5.47836" width="38.0765" height="41.0399" filterUnits="userSpaceOnUse" color-interpolation-filters="sRGB">
<feFlood flood-opacity="0" result="BackgroundImageFix"/>
<feColorMatrix in="SourceAlpha" type="matrix" values="0 0 0 0 0 0 0 0 0 0 0 0 0 0 0 0 0 0 127 0" result="hardAlpha"/>
<feOffset/>
<feGaussianBlur stdDeviation="2.11629"/>
<feComposite in2="hardAlpha" operator="out"/>
<feColorMatrix type="matrix" values="0 0 0 0 1 0 0 0 0 1 0 0 0 0 1 0 0 0 0.7 0"/>
<feBlend mode="normal" in2="BackgroundImageFix" result="effect1_dropShadow_2466_881"/>
<feBlend mode="normal" in="SourceGraphic" in2="effect1_dropShadow_2466_881" result="shape"/>
</filter>
<filter id="filter2_d_2466_881" x="12.7674" y="17.7674" width="24.4652" height="25.4652" filterUnits="userSpaceOnUse" color-interpolation-filters="sRGB">
<feFlood flood-opacity="0" result="BackgroundImageFix"/>
<feColorMatrix in="SourceAlpha" type="matrix" values="0 0 0 0 0 0 0 0 0 0 0 0 0 0 0 0 0 0 127 0" result="hardAlpha"/>
<feOffset/>
<feGaussianBlur stdDeviation="2.11629"/>
<feComposite in2="hardAlpha" operator="out"/>
<feColorMatrix type="matrix" values="0 0 0 0 1 0 0 0 0 1 0 0 0 0 1 0 0 0 0.7 0"/>
<feBlend mode="normal" in2="BackgroundImageFix" result="effect1_dropShadow_2466_881"/>
<feBlend mode="normal" in="SourceGraphic" in2="effect1_dropShadow_2466_881" result="shape"/>
</filter>
<linearGradient id="paint0_linear_2466_881" x1="4" y1="4" x2="49.6557" y2="9.5246" gradientUnits="userSpaceOnUse">
<stop stop-color="#F84F90"/>
<stop offset="1" stop-color="#ED4B4B"/>
</linearGradient>
<linearGradient id="paint1_linear_2466_881" x1="6.84717" y1="6.85291" x2="46.1736" y2="11.5618" gradientUnits="userSpaceOnUse">
<stop stop-color="#F84F90"/>
<stop offset="1" stop-color="#ED4B4B"/>
</linearGradient>
<linearGradient id="paint2_linear_2466_881" x1="9.69434" y1="9.71094" x2="42.6909" y2="13.606" gradientUnits="userSpaceOnUse">
<stop stop-color="#F84F90"/>
<stop offset="1" stop-color="#ED4B4B"/>
</linearGradient>
</defs>
</svg>
