<svg width="50" height="52" viewBox="0 0 50 52" fill="none" xmlns="http://www.w3.org/2000/svg">
<path fill-rule="evenodd" clip-rule="evenodd" d="M31.3645 6.78913C31.974 7.60853 32.7666 8.27467 33.6794 8.73412C37.9137 10.6592 41.3751 13.9722 43.4866 18.1323C45.6159 22.3274 46.244 27.1283 45.2651 31.7325C44.2862 36.3366 41.7602 40.4626 38.1117 43.4226C34.4635 46.3823 29.9135 47.9974 25.2219 48H25.2185C21.2047 48.0002 17.278 46.8196 13.9265 44.6035C10.5749 42.3873 7.94525 39.2326 6.36582 35.53C4.78634 31.8273 4.32719 27.7408 5.04589 23.7783C5.76458 19.8158 7.62911 16.1535 10.4064 13.2455C11.8328 11.7519 13.8465 10.9748 15.8993 11.1209C16.2707 11.1473 16.6358 10.9826 16.8379 10.6699C18.098 8.71973 19.6646 6.98002 21.4816 5.52048C22.81 4.45344 24.7824 3.80714 26.6899 4.0516C28.5515 4.29019 30.2395 5.27677 31.3645 6.78913Z" fill="url(#paint0_linear_2466_881)" fill-opacity="0.4"/>
<g filter="url(#filter0_d_2466_881)">
<path fill-rule="evenodd" clip-rule="evenodd" d="M17.8458 14.7706C17.9338 14.5739 18.0252 14.3785 18.1199 14.1845C19.3403 11.6868 21.0958 9.49028 23.2607 7.75126C24.0234 7.13866 25.2323 6.74537 26.3291 6.88595C27.4261 7.02653 28.4203 7.60782 29.0829 8.49846C29.9704 9.69152 31.1275 10.6573 32.4596 11.3166C36.1271 12.9716 39.1245 15.8335 40.9495 19.4291C42.7825 23.0405 43.3231 27.1731 42.4805 31.1362C41.6379 35.0992 39.4634 38.6515 36.3217 41.2003C33.1802 43.7491 29.2614 45.1402 25.2202 45.1425H25.2182C21.761 45.1427 18.3791 44.1258 15.493 42.2174C12.6067 40.3089 10.3428 37.5927 8.98321 34.4054C7.62358 31.2181 7.22841 27.7006 7.84702 24.2899C8.46563 20.8793 10.0706 17.7264 12.4618 15.2226C13.302 14.3429 14.4883 13.885 15.6978 13.9711C16.4834 14.027 17.2271 14.3087 17.8458 14.7706Z" fill="url(#paint1_linear_2466_881)" fill-opacity="0.6" shape-rendering="crispEdges"/>
</g>
<g filter="url(#filter1_d_2466_881)">
<path fill-rule="evenodd" clip-rule="evenodd" d="M26.8013 10.2079C26.6012 9.93898 26.3006 9.76302 25.9684 9.72045C25.6363 9.67788 25.3011 9.77236 25.0399 9.9822C23.2019 11.4585 21.712 13.3231 20.6763 15.4427C19.9474 16.9344 19.4561 18.5267 19.2164 20.1616C18.1395 19.3788 17.1917 18.4252 16.4122 17.3348C16.1984 17.0357 15.8627 16.8475 15.4964 16.8215C15.13 16.7954 14.7712 16.9341 14.5173 17.1999C12.5121 19.2995 11.1667 21.9429 10.6482 24.8017C10.1296 27.6605 10.4608 30.609 11.6006 33.2809C12.7404 35.9529 14.6386 38.2306 17.0594 39.8314C19.4803 41.4321 22.3172 42.2854 25.218 42.2852H25.2186C28.6094 42.2832 31.8968 41.1159 34.5317 38.9783C37.1667 36.8406 38.9896 33.8619 39.6959 30.54C40.4022 27.218 39.9491 23.7538 38.4124 20.7262C36.8757 17.6986 34.3465 15.2899 31.2507 13.9042C29.4948 13.0452 27.9691 11.7779 26.8013 10.2079Z" fill="url(#paint2_linear_2466_881)"/>
</g>
<g filter="url(#filter2_d_2466_881)">
<path fill-rule="evenodd" clip-rule="evenodd" d="M26.639 23.2596C26.5309 23.1193 26.3684 23.0274 26.189 23.0052C26.0095 22.983 25.8284 23.0323 25.6872 23.1418C24.6941 23.9123 23.889 24.8853 23.3294 25.9915C22.9356 26.77 22.6701 27.601 22.5406 28.4542C21.9587 28.0457 21.4465 27.5481 21.0254 26.979C20.9099 26.8229 20.7285 26.7247 20.5305 26.7111C20.3326 26.6975 20.1387 26.7699 20.0015 26.9086C18.918 28.0043 18.191 29.3838 17.9109 30.8758C17.6307 32.3677 17.8096 33.9065 18.4255 35.3009C19.0414 36.6953 20.067 37.884 21.3751 38.7194C22.6832 39.5548 24.2161 40.0001 25.7835 40H25.7838C27.616 39.999 29.3923 39.3898 30.8161 38.2742C32.2398 37.1586 33.2248 35.6041 33.6064 33.8705C33.9881 32.1368 33.7433 30.3289 32.9129 28.7489C32.0826 27.1688 30.7159 25.9118 29.0432 25.1886C28.0944 24.7403 27.27 24.079 26.639 23.2596Z" fill="white"/>
</g>
<defs>
<filter id="filter0_d_2466_881" x="0.790377" y="0.0852985" width="48.8499" height="51.8294" filterUnits="userSpaceOnUse" color-interpolation-filters="sRGB">
<feFlood flood-opacity="0" result="BackgroundImageFix"/>
<feColorMatrix in="SourceAlpha" type="matrix" values="0 0 0 0 0 0 0 0 0 0 0 0 0 0 0 0 0 0 127 0" result="hardAlpha"/>
<feOffset/>
<feGaussianBlur stdDeviation="3.38606"/>
<feComposite in2="hardAlpha" operator="out"/>
<feColorMatrix type="matrix" values="0 0 0 0 1 0 0 0 0 1 0 0 0 0 1 0 0 0 0.7 0"/>
<feBlend mode="normal" in2="BackgroundImageFix" result="effect1_dropShadow_2466_881"/>
<feBlend mode="normal" in="SourceGraphic" in2="effect1_dropShadow_2466_881" result="shape"/>
</filter>
<filter id="filter1_d_2466_881" x="6.17709" y="5.47787" width="38.0762" height="41.0399" filterUnits="userSpaceOnUse" color-interpolation-filters="sRGB">
<feFlood flood-opacity="0" result="BackgroundImageFix"/>
<feColorMatrix in="SourceAlpha" type="matrix" values="0 0 0 0 0 0 0 0 0 0 0 0 0 0 0 0 0 0 127 0" result="hardAlpha"/>
<feOffset/>
<feGaussianBlur stdDeviation="2.11629"/>
<feComposite in2="hardAlpha" operator="out"/>
<feColorMatrix type="matrix" values="0 0 0 0 1 0 0 0 0 1 0 0 0 0 1 0 0 0 0.7 0"/>
<feBlend mode="normal" in2="BackgroundImageFix" result="effect1_dropShadow_2466_881"/>
<feBlend mode="normal" in="SourceGraphic" in2="effect1_dropShadow_2466_881" result="shape"/>
</filter>
<filter id="filter2_d_2466_881" x="13.5494" y="18.7674" width="24.4652" height="25.4652" filterUnits="userSpaceOnUse" color-interpolation-filters="sRGB">
<feFlood flood-opacity="0" result="BackgroundImageFix"/>
<feColorMatrix in="SourceAlpha" type="matrix" values="0 0 0 0 0 0 0 0 0 0 0 0 0 0 0 0 0 0 127 0" result="hardAlpha"/>
<feOffset/>
<feGaussianBlur stdDeviation="2.11629"/>
<feComposite in2="hardAlpha" operator="out"/>
<feColorMatrix type="matrix" values="0 0 0 0 1 0 0 0 0 1 0 0 0 0 1 0 0 0 0.7 0"/>
<feBlend mode="normal" in2="BackgroundImageFix" result="effect1_dropShadow_2466_881"/>
<feBlend mode="normal" in="SourceGraphic" in2="effect1_dropShadow_2466_881" result="shape"/>
</filter>
<linearGradient id="paint0_linear_2466_881" x1="4.71533" y1="4" x2="50.3711" y2="9.5246" gradientUnits="userSpaceOnUse">
<stop stop-color="#F84F90"/>
<stop offset="1" stop-color="#ED4B4B"/>
</linearGradient>
<linearGradient id="paint1_linear_2466_881" x1="7.5625" y1="6.85291" x2="46.889" y2="11.5618" gradientUnits="userSpaceOnUse">
<stop stop-color="#F84F90"/>
<stop offset="1" stop-color="#ED4B4B"/>
</linearGradient>
<linearGradient id="paint2_linear_2466_881" x1="10.4097" y1="9.71045" x2="43.4063" y2="13.6055" gradientUnits="userSpaceOnUse">
<stop stop-color="#F84F90"/>
<stop offset="1" stop-color="#ED4B4B"/>
</linearGradient>
</defs>
</svg>
