<svg width="94" height="94" viewBox="0 0 94 94" fill="none" xmlns="http://www.w3.org/2000/svg">
<rect width="93.38" height="93.38" rx="20" fill="white"/>
<path fill-rule="evenodd" clip-rule="evenodd" d="M46.5895 13.0731C33.2361 13.0731 22.4111 23.8981 22.4111 37.2515C22.4111 46.3659 33.6755 65.5669 40.8271 76.8387C43.5453 81.123 49.6336 81.123 52.3519 76.8387C59.5034 65.5669 70.7678 46.3659 70.7678 37.2515C70.7678 23.8981 59.9428 13.0731 46.5895 13.0731Z" fill="url(#paint0_linear_386_802)"/>
<path fill-rule="evenodd" clip-rule="evenodd" d="M48.0412 21.4851C47.8454 21.2228 47.5512 21.0513 47.2262 21.0098C46.9011 20.9682 46.5731 21.0604 46.3175 21.265C44.5188 22.7046 43.0607 24.5227 42.0472 26.5896C41.3338 28.0443 40.8531 29.5969 40.6185 31.1912C39.5646 30.4279 38.637 29.498 37.8742 28.4347C37.665 28.1431 37.3365 27.9596 36.978 27.9341C36.6195 27.9087 36.2683 28.044 36.0198 28.3032C34.0575 30.3506 32.7408 32.9282 32.2334 35.7159C31.726 38.5037 32.0501 41.3788 33.1655 43.9842C34.2809 46.5897 36.1385 48.8108 38.5076 50.3718C40.8767 51.9327 43.653 52.7647 46.4918 52.7645H46.4924C49.8107 52.7627 53.0278 51.6244 55.6065 49.5399C58.1851 47.4553 59.969 44.5508 60.6602 41.3114C61.3514 38.0721 60.9081 34.6941 59.4042 31.7418C57.9003 28.7894 55.4251 26.4407 52.3956 25.0895C50.6771 24.2518 49.1841 23.016 48.0412 21.4851Z" fill="white"/>
<rect width="93.38" height="93.38" rx="20" fill="white"/>
<path fill-rule="evenodd" clip-rule="evenodd" d="M46.5895 13.0731C33.2361 13.0731 22.4111 23.8981 22.4111 37.2515C22.4111 46.3659 33.6755 65.5669 40.8271 76.8387C43.5453 81.123 49.6336 81.123 52.3519 76.8387C59.5034 65.5669 70.7678 46.3659 70.7678 37.2515C70.7678 23.8981 59.9428 13.0731 46.5895 13.0731Z" fill="url(#paint1_linear_386_802)"/>
<path fill-rule="evenodd" clip-rule="evenodd" d="M48.2805 23.5845C48.1041 23.3482 47.8391 23.1936 47.5462 23.1562C47.2534 23.1188 46.9579 23.2018 46.7276 23.3862C45.1071 24.6832 43.7935 26.3211 42.8804 28.1832C42.2377 29.4938 41.8046 30.8925 41.5933 32.3289C40.6438 31.6412 39.8081 30.8034 39.1209 29.8455C38.9324 29.5827 38.6365 29.4174 38.3135 29.3945C37.9905 29.3716 37.6741 29.4935 37.4503 29.727C35.6824 31.5715 34.4962 33.8937 34.039 36.4052C33.5819 38.9167 33.8739 41.5069 34.8788 43.8543C35.8837 46.2016 37.5572 48.2026 39.6916 49.6089C41.8259 51.0151 44.3271 51.7647 46.8846 51.7645H46.8851C49.8746 51.7628 52.773 50.7374 55.0961 48.8594C57.4193 46.9814 59.0264 44.3647 59.6491 41.4463C60.2718 38.5279 59.8724 35.4846 58.5176 32.8248C57.1627 30.165 54.9328 28.049 52.2034 26.8317C50.6553 26.077 49.3102 24.9637 48.2805 23.5845Z" fill="white"/>
<defs>
<linearGradient id="paint0_linear_386_802" x1="22.4111" y1="13.0731" x2="76.5713" y2="18.1509" gradientUnits="userSpaceOnUse">
<stop stop-color="#F84F90"/>
<stop offset="1" stop-color="#ED4B4B"/>
</linearGradient>
<linearGradient id="paint1_linear_386_802" x1="22.4111" y1="13.0731" x2="76.5713" y2="18.1509" gradientUnits="userSpaceOnUse">
<stop stop-color="#F84F90"/>
<stop offset="1" stop-color="#ED4B4B"/>
</linearGradient>
</defs>
</svg>
