<svg width="736" height="736" viewBox="0 0 736 736" fill="none" xmlns="http://www.w3.org/2000/svg">
<rect width="736" height="736" rx="80" fill="white"/>
<path d="M367.568 93C256.245 93 166 183.245 166 294.568C166 314.44 172.061 338.796 181.398 364.846C190.81 391.103 203.883 419.972 218.618 449.158C248.093 507.54 284.597 567.929 312.862 612.479C338.607 653.056 396.53 653.056 422.274 612.479C450.54 567.929 487.043 507.54 516.518 449.158C531.254 419.972 544.326 391.103 553.738 364.846C563.076 338.796 569.136 314.44 569.136 294.568C569.136 183.245 478.891 93 367.568 93Z" fill="url(#paint0_linear_2439_777)" stroke="url(#paint1_linear_2439_777)" stroke-width="22"/>
<path fill-rule="evenodd" clip-rule="evenodd" d="M380.896 186.848C379.506 184.985 377.417 183.767 375.109 183.472C372.801 183.177 370.472 183.832 368.656 185.285C355.885 195.507 345.531 208.417 338.334 223.094C333.269 233.423 329.855 244.448 328.189 255.769C320.705 250.348 314.119 243.746 308.703 236.195C307.217 234.124 304.884 232.821 302.339 232.641C299.793 232.46 297.299 233.421 295.535 235.261C281.601 249.799 272.251 268.102 268.648 287.897C265.045 307.693 267.347 328.108 275.267 346.609C283.187 365.11 296.378 380.882 313.2 391.966C330.023 403.05 349.737 408.958 369.894 408.956H369.898C393.461 408.943 416.305 400.86 434.616 386.059C452.926 371.257 465.593 350.632 470.501 327.63C475.409 304.628 472.261 280.642 461.582 259.678C450.904 238.714 433.328 222.036 411.816 212.441C399.614 206.493 389.012 197.718 380.896 186.848Z" fill="white"/>
<defs>
<linearGradient id="paint0_linear_2439_777" x1="177" y1="104" x2="603.878" y2="144.022" gradientUnits="userSpaceOnUse">
<stop stop-color="#F8B54F"/>
<stop offset="0.346154" stop-color="#ED4B4B"/>
<stop offset="1" stop-color="#ED4BB2"/>
</linearGradient>
<linearGradient id="paint1_linear_2439_777" x1="177" y1="104" x2="603.878" y2="144.022" gradientUnits="userSpaceOnUse">
<stop stop-color="#F8B54F"/>
<stop offset="0.346154" stop-color="#ED4B4B"/>
<stop offset="1" stop-color="#ED4BB2"/>
</linearGradient>
</defs>
</svg>
