<svg width="84" height="111" viewBox="0 0 84 111" fill="none" xmlns="http://www.w3.org/2000/svg">
<path d="M41.9834 4.12207C62.8939 4.12207 79.8455 21.073 79.8457 41.9834C79.8457 45.7807 78.6933 50.3636 76.9688 55.1748C75.2248 60.0402 72.8077 65.3744 70.0938 70.75C65.3432 80.1595 59.6061 89.8439 54.7656 97.6035L52.752 100.805C47.7677 108.661 36.6345 108.783 31.458 101.173L31.2158 100.805C26.0206 92.6163 19.3023 81.5037 13.873 70.75C11.1591 65.3744 8.743 60.0402 6.99902 55.1748C5.27448 50.3636 4.12207 45.7807 4.12207 41.9834C4.12225 21.0731 21.0731 4.12224 41.9834 4.12207Z" fill="url(#paint0_linear_2439_821)" stroke="#F44E74" stroke-width="5.75636"/>
<path d="M39.9788 16.4639C40.8648 15.8257 41.9483 15.5222 43.0364 15.6055L43.2698 15.6289L43.5012 15.6641C44.5757 15.8569 45.5481 16.4243 46.2454 17.2656L46.3909 17.4502L46.6545 17.792C47.9906 19.4743 49.6869 20.8396 51.6213 21.7871C56.5761 24.0146 60.6251 27.867 63.0901 32.7061C65.5654 37.5657 66.2953 43.1263 65.1575 48.459C64.0196 53.7917 61.0834 58.5727 56.8401 62.0029C52.5969 65.433 47.3036 67.3045 41.845 67.3076H41.842V67.3066C37.3183 67.3069 32.8907 66.0236 29.0745 63.6084L28.7063 63.3711C24.9299 60.8829 21.9424 57.3748 20.0901 53.2588L19.9143 52.8584C18.0783 48.5695 17.5448 43.8364 18.3801 39.2471L18.4622 38.8174C19.3518 34.3929 21.4839 30.3091 24.6125 27.0449L24.7961 26.8643C25.6709 26.0478 26.8283 25.6028 28.0237 25.6211L28.2805 25.6318L28.5364 25.6572C29.7227 25.8079 30.8062 26.4122 31.5569 27.3447L31.7122 27.5498L31.8049 27.6748C32.1043 26.8648 32.4455 26.0688 32.8274 25.29L33.1458 24.6631C34.7799 21.5509 37.0417 18.8073 39.7913 16.6064L39.9788 16.4639Z" fill="white" stroke="#F44E74" stroke-width="5.75636"/>
<path d="M41.9834 4.12207C62.8939 4.12207 79.8455 21.073 79.8457 41.9834C79.8457 45.7807 78.6933 50.3636 76.9688 55.1748C75.2248 60.0402 72.8077 65.3744 70.0938 70.75C65.3432 80.1595 59.6061 89.8439 54.7656 97.6035L52.752 100.805C47.7677 108.661 36.6345 108.783 31.458 101.173L31.2158 100.805C26.0206 92.6163 19.3023 81.5037 13.873 70.75C11.1591 65.3744 8.743 60.0402 6.99902 55.1748C5.27448 50.3636 4.12207 45.7807 4.12207 41.9834C4.12225 21.0731 21.0731 4.12224 41.9834 4.12207Z" fill="url(#paint1_linear_2439_821)" stroke="#F44E74" stroke-width="5.75636"/>
<path d="M40.5652 19.5381C41.4182 18.9236 42.4611 18.6307 43.5085 18.7109L43.7332 18.7334V18.7344L43.9558 18.7686C44.99 18.9542 45.9263 19.4996 46.5974 20.3096L46.7371 20.4863L46.9695 20.7881C48.1504 22.2751 49.6508 23.4811 51.3621 24.3164C55.8738 26.3514 59.5612 29.8629 61.8074 34.2725L62.0144 34.6895C64.0396 38.8854 64.6609 43.6207 63.7869 48.1963L63.6951 48.6533C62.6887 53.3695 60.1407 57.6123 56.4607 60.7197L56.1013 61.0176C52.2279 64.1487 47.3957 65.8576 42.4128 65.8604H42.4109C38.4142 65.8606 34.4995 64.7627 31.0935 62.6934L30.4197 62.2666C27.0833 60.0683 24.4213 56.9981 22.7205 53.3965L22.3933 52.6699C20.7171 48.7545 20.2303 44.4329 20.9929 40.2432L21.1501 39.4619C22.0067 35.5728 23.9184 31.9882 26.6824 29.1045L26.8582 28.9307C27.7002 28.1445 28.8148 27.7158 29.9656 27.7334L30.2126 27.7441L30.4587 27.7686C31.5576 27.908 32.5636 28.4532 33.282 29.2939C33.5089 28.7191 33.7598 28.1527 34.033 27.5957L34.323 27.0234C35.8136 24.1845 37.8774 21.6823 40.3855 19.6748L40.5652 19.5381Z" fill="white" stroke="#F44E74" stroke-width="5.75636"/>
<path d="M41.9834 3.76758C63.0897 3.76758 80.2 20.8771 80.2002 41.9834C80.2002 45.8424 79.0316 50.4717 77.3027 55.2949C75.5521 60.1789 73.1277 65.5265 70.4102 70.9092C65.6531 80.3316 59.91 90.0263 55.0664 97.791L53.0508 100.994C47.9294 109.066 36.4841 109.193 31.165 101.373L30.916 100.994C25.7182 92.8017 18.9933 81.6776 13.5566 70.9092C10.8391 65.5266 8.41566 60.1788 6.66504 55.2949C4.9362 50.4717 3.76758 45.8424 3.76758 41.9834C3.76775 20.8773 20.8773 3.76775 41.9834 3.76758Z" fill="url(#paint2_linear_2439_821)" stroke="white" stroke-width="6.46554"/>
<path fill-rule="evenodd" clip-rule="evenodd" d="M44.4306 22.2086C44.1753 21.8667 43.7918 21.643 43.3681 21.5889C42.9444 21.5348 42.5168 21.6549 42.1836 21.9216C39.839 23.7982 37.9383 26.1682 36.6171 28.8625C35.6872 30.7587 35.0606 32.7826 34.7547 34.8608C33.3809 33.8657 32.1718 32.6537 31.1775 31.2676C30.9048 30.8874 30.4765 30.6482 30.0092 30.6151C29.5419 30.5819 29.0841 30.7583 28.7602 31.0962C26.2022 33.765 24.486 37.125 23.8245 40.7589C23.163 44.3928 23.5855 48.1406 25.0395 51.5369C26.4935 54.9333 28.9149 57.8285 32.0032 59.8633C35.0914 61.898 38.7104 62.9826 42.4108 62.9823H42.4116C46.7371 62.9799 50.9308 61.4961 54.2921 58.7789C57.6534 56.0616 59.9788 52.2754 60.8798 48.0528C61.7808 43.8302 61.2029 39.4269 59.2426 35.5784C57.2822 31.73 54.0557 28.6683 50.1066 26.9069C47.8666 25.815 45.9204 24.2041 44.4306 22.2086Z" fill="white"/>
<defs>
<linearGradient id="paint0_linear_2439_821" x1="7" y1="7" x2="85.3646" y2="14.347" gradientUnits="userSpaceOnUse">
<stop stop-color="#F84F90"/>
<stop offset="1" stop-color="#ED4B4B"/>
</linearGradient>
<linearGradient id="paint1_linear_2439_821" x1="7" y1="7" x2="85.3646" y2="14.347" gradientUnits="userSpaceOnUse">
<stop stop-color="#F84F90"/>
<stop offset="1" stop-color="#ED4B4B"/>
</linearGradient>
<linearGradient id="paint2_linear_2439_821" x1="7" y1="7" x2="85.3646" y2="14.347" gradientUnits="userSpaceOnUse">
<stop stop-color="#F8B54F"/>
<stop offset="0.346154" stop-color="#ED4B4B"/>
<stop offset="1" stop-color="#ED4BB2"/>
</linearGradient>
</defs>
</svg>
